<?xml version='1.0' encoding='utf-8'?>
<mlt LC_NUMERIC="C" producer="main_bin" version="7.10.0" root="C:/Users/Victor/Documents/P3/PET/Edições/Lista 7">
 <profile frame_rate_num="30" sample_aspect_num="1" display_aspect_den="9" colorspace="709" progressive="1" description="HD 720p 30 fps" display_aspect_num="16" frame_rate_den="1" width="1280" height="720" sample_aspect_den="1"/>
 <producer id="producer0" in="00:00:00.000" out="00:03:29.800">
  <property name="length">6295</property>
  <property name="eof">pause</property>
  <property name="resource">C:/Users/Victor/Videos/2022-11-19 00-10-11.mkv</property>
  <property name="meta.media.nb_streams">2</property>
  <property name="meta.media.0.stream.type">video</property>
  <property name="meta.media.0.stream.frame_rate">30</property>
  <property name="meta.media.0.stream.sample_aspect_ratio">0</property>
  <property name="meta.media.0.codec.width">1280</property>
  <property name="meta.media.0.codec.height">720</property>
  <property name="meta.media.0.codec.rotate">0</property>
  <property name="meta.media.0.codec.pix_fmt">yuv420p</property>
  <property name="meta.media.0.codec.sample_aspect_ratio">1</property>
  <property name="meta.media.0.codec.colorspace">709</property>
  <property name="meta.media.0.codec.color_trc">1</property>
  <property name="meta.media.0.codec.name">h264</property>
  <property name="meta.media.0.codec.long_name">H.264 / AVC / MPEG-4 AVC / MPEG-4 part 10</property>
  <property name="meta.media.0.codec.bit_rate">0</property>
  <property name="meta.attr.0.stream.DURATION.markup">00:03:29.833000000</property>
  <property name="meta.media.1.stream.type">audio</property>
  <property name="meta.media.1.codec.sample_fmt">fltp</property>
  <property name="meta.media.1.codec.sample_rate">48000</property>
  <property name="meta.media.1.codec.channels">2</property>
  <property name="meta.media.1.codec.name">aac</property>
  <property name="meta.media.1.codec.long_name">AAC (Advanced Audio Coding)</property>
  <property name="meta.media.1.codec.bit_rate">0</property>
  <property name="meta.attr.1.stream.title.markup">simple_aac_recording</property>
  <property name="meta.attr.1.stream.DURATION.markup">00:03:29.706000000</property>
  <property name="meta.attr.ENCODER.markup">Lavf59.16.100</property>
  <property name="seekable">1</property>
  <property name="meta.media.sample_aspect_num">1</property>
  <property name="meta.media.sample_aspect_den">1</property>
  <property name="aspect_ratio">1</property>
  <property name="format">3</property>
  <property name="audio_index">1</property>
  <property name="video_index">0</property>
  <property name="mute_on_pause">0</property>
  <property name="mlt_service">avformat</property>
  <property name="kdenlive:clipname"/>
  <property name="kdenlive:clip_type">0</property>
  <property name="kdenlive:folderid">-1</property>
  <property name="kdenlive:id">2</property>
  <property name="kdenlive:file_size">15824530</property>
  <property name="kdenlive:file_hash">b04d836720e2f246a3ba99763666c3ea</property>
  <property name="meta.media.frame_rate_num">30</property>
  <property name="meta.media.frame_rate_den">1</property>
  <property name="meta.media.colorspace">709</property>
  <property name="meta.media.color_trc">1</property>
  <property name="meta.media.has_b_frames">2</property>
  <property name="meta.media.width">1280</property>
  <property name="meta.media.height">720</property>
  <property name="meta.media.color_range">mpeg</property>
  <property name="meta.media.top_field_first">0</property>
  <property name="meta.media.progressive">1</property>
  <property name="kdenlive:audio_max1">142</property>
  <property name="kdenlive:zone_in">207</property>
  <property name="kdenlive:zone_out">6189</property>
 </producer>
 <producer id="producer1" in="00:00:00.000" out="00:03:26.867">
  <property name="length">6207</property>
  <property name="eof">pause</property>
  <property name="resource">C:/Users/Victor/Downloads/Questão 1.mp4</property>
  <property name="meta.media.nb_streams">1</property>
  <property name="meta.media.0.stream.type">audio</property>
  <property name="meta.media.0.codec.sample_fmt">fltp</property>
  <property name="meta.media.0.codec.sample_rate">16000</property>
  <property name="meta.media.0.codec.channels">1</property>
  <property name="meta.media.0.codec.name">aac</property>
  <property name="meta.media.0.codec.long_name">AAC (Advanced Audio Coding)</property>
  <property name="meta.media.0.codec.bit_rate">96000</property>
  <property name="meta.attr.0.stream.creation_time.markup">2022-11-19T03:13:03.000000Z</property>
  <property name="meta.attr.0.stream.language.markup">eng</property>
  <property name="meta.attr.0.stream.handler_name.markup">SoundHandle</property>
  <property name="meta.attr.0.stream.vendor_id.markup">[0][0][0][0]</property>
  <property name="meta.attr.major_brand.markup">mp42</property>
  <property name="meta.attr.minor_version.markup">0</property>
  <property name="meta.attr.compatible_brands.markup">isommp42</property>
  <property name="meta.attr.creation_time.markup">2022-11-19T03:13:03.000000Z</property>
  <property name="meta.attr.com.android.version.markup">10</property>
  <property name="seekable">1</property>
  <property name="audio_index">0</property>
  <property name="video_index">-1</property>
  <property name="mute_on_pause">1</property>
  <property name="mlt_service">avformat</property>
  <property name="kdenlive:clipname"/>
  <property name="kdenlive:clip_type">1</property>
  <property name="kdenlive:folderid">-1</property>
  <property name="kdenlive:id">3</property>
  <property name="kdenlive:file_size">2499777</property>
  <property name="kdenlive:file_hash">bede4d6e350f2df1e090332ebdd5754e</property>
  <property name="kdenlive:audio_max0">168</property>
 </producer>
 <producer id="producer2" in="00:00:00.000" out="00:04:08.933">
  <property name="length">7469</property>
  <property name="eof">pause</property>
  <property name="resource">C:/Users/Victor/Videos/2022-11-19 00-28-08.mkv</property>
  <property name="meta.media.nb_streams">2</property>
  <property name="meta.media.0.stream.type">video</property>
  <property name="meta.media.0.stream.frame_rate">30</property>
  <property name="meta.media.0.stream.sample_aspect_ratio">0</property>
  <property name="meta.media.0.codec.width">1280</property>
  <property name="meta.media.0.codec.height">720</property>
  <property name="meta.media.0.codec.rotate">0</property>
  <property name="meta.media.0.codec.pix_fmt">yuv420p</property>
  <property name="meta.media.0.codec.sample_aspect_ratio">1</property>
  <property name="meta.media.0.codec.colorspace">709</property>
  <property name="meta.media.0.codec.color_trc">1</property>
  <property name="meta.media.0.codec.name">h264</property>
  <property name="meta.media.0.codec.long_name">H.264 / AVC / MPEG-4 AVC / MPEG-4 part 10</property>
  <property name="meta.media.0.codec.bit_rate">0</property>
  <property name="meta.attr.0.stream.DURATION.markup">00:04:08.966000000</property>
  <property name="meta.media.1.stream.type">audio</property>
  <property name="meta.media.1.codec.sample_fmt">fltp</property>
  <property name="meta.media.1.codec.sample_rate">48000</property>
  <property name="meta.media.1.codec.channels">2</property>
  <property name="meta.media.1.codec.name">aac</property>
  <property name="meta.media.1.codec.long_name">AAC (Advanced Audio Coding)</property>
  <property name="meta.media.1.codec.bit_rate">0</property>
  <property name="meta.attr.1.stream.title.markup">simple_aac_recording</property>
  <property name="meta.attr.1.stream.DURATION.markup">00:04:08.874000000</property>
  <property name="meta.attr.ENCODER.markup">Lavf59.16.100</property>
  <property name="seekable">1</property>
  <property name="meta.media.sample_aspect_num">1</property>
  <property name="meta.media.sample_aspect_den">1</property>
  <property name="aspect_ratio">1</property>
  <property name="format">3</property>
  <property name="audio_index">1</property>
  <property name="video_index">0</property>
  <property name="mute_on_pause">0</property>
  <property name="mlt_service">avformat-novalidate</property>
  <property name="kdenlive:clipname"/>
  <property name="meta.media.frame_rate_num">30</property>
  <property name="meta.media.frame_rate_den">1</property>
  <property name="meta.media.colorspace">709</property>
  <property name="meta.media.color_trc">1</property>
  <property name="meta.media.has_b_frames">2</property>
  <property name="meta.media.width">1280</property>
  <property name="meta.media.height">720</property>
  <property name="meta.media.color_range">mpeg</property>
  <property name="meta.media.top_field_first">0</property>
  <property name="meta.media.progressive">1</property>
  <property name="kdenlive:clip_type">0</property>
  <property name="kdenlive:folderid">-1</property>
  <property name="kdenlive:id">4</property>
  <property name="kdenlive:file_size">17795321</property>
  <property name="kdenlive:file_hash">1414c106d30c29338d858b708fa982e9</property>
  <property name="kdenlive:audio_max1">106</property>
 </producer>
 <producer id="producer3" in="00:00:00.000" out="00:04:05.667">
  <property name="length">7371</property>
  <property name="eof">pause</property>
  <property name="resource">C:/Users/Victor/Downloads/Questão 2.mp4</property>
  <property name="meta.media.nb_streams">1</property>
  <property name="meta.media.0.stream.type">audio</property>
  <property name="meta.media.0.codec.sample_fmt">fltp</property>
  <property name="meta.media.0.codec.sample_rate">16000</property>
  <property name="meta.media.0.codec.channels">1</property>
  <property name="meta.media.0.codec.name">aac</property>
  <property name="meta.media.0.codec.long_name">AAC (Advanced Audio Coding)</property>
  <property name="meta.media.0.codec.bit_rate">96000</property>
  <property name="meta.attr.0.stream.creation_time.markup">2022-11-19T03:31:38.000000Z</property>
  <property name="meta.attr.0.stream.language.markup">eng</property>
  <property name="meta.attr.0.stream.handler_name.markup">SoundHandle</property>
  <property name="meta.attr.0.stream.vendor_id.markup">[0][0][0][0]</property>
  <property name="meta.attr.major_brand.markup">mp42</property>
  <property name="meta.attr.minor_version.markup">0</property>
  <property name="meta.attr.compatible_brands.markup">isommp42</property>
  <property name="meta.attr.creation_time.markup">2022-11-19T03:31:38.000000Z</property>
  <property name="meta.attr.com.android.version.markup">10</property>
  <property name="seekable">1</property>
  <property name="audio_index">0</property>
  <property name="video_index">-1</property>
  <property name="mute_on_pause">1</property>
  <property name="mlt_service">avformat</property>
  <property name="kdenlive:clipname"/>
  <property name="kdenlive:clip_type">1</property>
  <property name="kdenlive:folderid">-1</property>
  <property name="kdenlive:id">5</property>
  <property name="kdenlive:file_size">2967609</property>
  <property name="kdenlive:file_hash">af261ab1556b8ea2c2ff53ccd23db81f</property>
  <property name="kdenlive:audio_max0">151</property>
 </producer>
 <producer id="producer4" in="00:00:00.000" out="00:01:00.567">
  <property name="length">1818</property>
  <property name="eof">pause</property>
  <property name="resource">C:/Users/Victor/Downloads/[Editado] Questão 3.mp4</property>
  <property name="meta.media.nb_streams">2</property>
  <property name="meta.media.0.stream.type">video</property>
  <property name="meta.media.0.stream.frame_rate">60.0165</property>
  <property name="meta.media.0.stream.sample_aspect_ratio">1</property>
  <property name="meta.media.0.codec.width">1920</property>
  <property name="meta.media.0.codec.height">1080</property>
  <property name="meta.media.0.codec.rotate">0</property>
  <property name="meta.media.0.codec.pix_fmt">yuv420p</property>
  <property name="meta.media.0.codec.sample_aspect_ratio">1</property>
  <property name="meta.media.0.codec.colorspace">709</property>
  <property name="meta.media.0.codec.name">h264</property>
  <property name="meta.media.0.codec.long_name">H.264 / AVC / MPEG-4 AVC / MPEG-4 part 10</property>
  <property name="meta.media.0.codec.bit_rate">366953</property>
  <property name="meta.attr.0.stream.handler_name.markup">VideoHandler</property>
  <property name="meta.attr.0.stream.vendor_id.markup">[0][0][0][0]</property>
  <property name="meta.media.1.stream.type">audio</property>
  <property name="meta.media.1.codec.sample_fmt">fltp</property>
  <property name="meta.media.1.codec.sample_rate">48000</property>
  <property name="meta.media.1.codec.channels">2</property>
  <property name="meta.media.1.codec.name">aac</property>
  <property name="meta.media.1.codec.long_name">AAC (Advanced Audio Coding)</property>
  <property name="meta.media.1.codec.bit_rate">260687</property>
  <property name="meta.attr.1.stream.handler_name.markup">SoundHandler</property>
  <property name="meta.attr.1.stream.vendor_id.markup">[0][0][0][0]</property>
  <property name="meta.attr.major_brand.markup">isom</property>
  <property name="meta.attr.minor_version.markup">512</property>
  <property name="meta.attr.compatible_brands.markup">isomiso2avc1mp41</property>
  <property name="meta.attr.encoder.markup">Lavf58.76.100</property>
  <property name="seekable">1</property>
  <property name="meta.media.sample_aspect_num">1</property>
  <property name="meta.media.sample_aspect_den">1</property>
  <property name="aspect_ratio">1</property>
  <property name="format">3</property>
  <property name="audio_index">1</property>
  <property name="video_index">0</property>
  <property name="mute_on_pause">0</property>
  <property name="mlt_service">avformat-novalidate</property>
  <property name="kdenlive:clipname"/>
  <property name="meta.media.frame_rate_num">43632</property>
  <property name="meta.media.frame_rate_den">727</property>
  <property name="meta.media.colorspace">709</property>
  <property name="meta.media.color_trc">2</property>
  <property name="meta.media.has_b_frames">2</property>
  <property name="meta.media.width">1920</property>
  <property name="meta.media.height">1080</property>
  <property name="meta.media.color_range">mpeg</property>
  <property name="meta.media.top_field_first">0</property>
  <property name="meta.media.progressive">1</property>
  <property name="kdenlive:clip_type">0</property>
  <property name="kdenlive:folderid">-1</property>
  <property name="kdenlive:id">6</property>
  <property name="kdenlive:file_size">4851290</property>
  <property name="kdenlive:file_hash">2f536ed1c05d203fe92694e847029411</property>
  <property name="kdenlive:audio_max1">140</property>
 </producer>
 <producer id="producer5" in="00:00:00.000" out="00:01:25.533">
  <property name="length">2567</property>
  <property name="eof">pause</property>
  <property name="resource">C:/Users/Victor/Downloads/[Editado] Questão 4.mp4</property>
  <property name="meta.media.nb_streams">2</property>
  <property name="meta.media.0.stream.type">video</property>
  <property name="meta.media.0.stream.frame_rate">60.0117</property>
  <property name="meta.media.0.stream.sample_aspect_ratio">1</property>
  <property name="meta.media.0.codec.width">1920</property>
  <property name="meta.media.0.codec.height">1080</property>
  <property name="meta.media.0.codec.rotate">0</property>
  <property name="meta.media.0.codec.pix_fmt">yuv420p</property>
  <property name="meta.media.0.codec.sample_aspect_ratio">1</property>
  <property name="meta.media.0.codec.colorspace">709</property>
  <property name="meta.media.0.codec.name">h264</property>
  <property name="meta.media.0.codec.long_name">H.264 / AVC / MPEG-4 AVC / MPEG-4 part 10</property>
  <property name="meta.media.0.codec.bit_rate">487657</property>
  <property name="meta.attr.0.stream.handler_name.markup">VideoHandler</property>
  <property name="meta.attr.0.stream.vendor_id.markup">[0][0][0][0]</property>
  <property name="meta.media.1.stream.type">audio</property>
  <property name="meta.media.1.codec.sample_fmt">fltp</property>
  <property name="meta.media.1.codec.sample_rate">48000</property>
  <property name="meta.media.1.codec.channels">2</property>
  <property name="meta.media.1.codec.name">aac</property>
  <property name="meta.media.1.codec.long_name">AAC (Advanced Audio Coding)</property>
  <property name="meta.media.1.codec.bit_rate">261112</property>
  <property name="meta.attr.1.stream.handler_name.markup">SoundHandler</property>
  <property name="meta.attr.1.stream.vendor_id.markup">[0][0][0][0]</property>
  <property name="meta.attr.major_brand.markup">isom</property>
  <property name="meta.attr.minor_version.markup">512</property>
  <property name="meta.attr.compatible_brands.markup">isomiso2avc1mp41</property>
  <property name="meta.attr.encoder.markup">Lavf58.76.100</property>
  <property name="seekable">1</property>
  <property name="meta.media.sample_aspect_num">1</property>
  <property name="meta.media.sample_aspect_den">1</property>
  <property name="aspect_ratio">1</property>
  <property name="format">3</property>
  <property name="audio_index">1</property>
  <property name="video_index">0</property>
  <property name="mute_on_pause">0</property>
  <property name="mlt_service">avformat-novalidate</property>
  <property name="kdenlive:clipname"/>
  <property name="meta.media.frame_rate_num">102680</property>
  <property name="meta.media.frame_rate_den">1711</property>
  <property name="meta.media.colorspace">709</property>
  <property name="meta.media.color_trc">2</property>
  <property name="meta.media.has_b_frames">2</property>
  <property name="meta.media.width">1920</property>
  <property name="meta.media.height">1080</property>
  <property name="meta.media.color_range">mpeg</property>
  <property name="meta.media.top_field_first">0</property>
  <property name="meta.media.progressive">1</property>
  <property name="kdenlive:clip_type">0</property>
  <property name="kdenlive:folderid">-1</property>
  <property name="kdenlive:id">7</property>
  <property name="kdenlive:file_size">8145690</property>
  <property name="kdenlive:file_hash">9da6995c38be18c2105a2f19758eb016</property>
  <property name="kdenlive:audio_max1">135</property>
 </producer>
 <playlist id="main_bin">
  <property name="kdenlive:docproperties.activeTrack">2</property>
  <property name="kdenlive:docproperties.audioChannels">2</property>
  <property name="kdenlive:docproperties.audioTarget">1</property>
  <property name="kdenlive:docproperties.compositing">1</property>
  <property name="kdenlive:docproperties.disablepreview">0</property>
  <property name="kdenlive:docproperties.documentid">1668886764504</property>
  <property name="kdenlive:docproperties.enableTimelineZone">0</property>
  <property name="kdenlive:docproperties.enableexternalproxy">0</property>
  <property name="kdenlive:docproperties.enableproxy">0</property>
  <property name="kdenlive:docproperties.externalproxyparams"/>
  <property name="kdenlive:docproperties.generateimageproxy">0</property>
  <property name="kdenlive:docproperties.generateproxy">0</property>
  <property name="kdenlive:docproperties.kdenliveversion">22.08.3</property>
  <property name="kdenlive:docproperties.position">14357</property>
  <property name="kdenlive:docproperties.previewextension"/>
  <property name="kdenlive:docproperties.previewparameters"/>
  <property name="kdenlive:docproperties.profile">atsc_720p_30</property>
  <property name="kdenlive:docproperties.proxyextension"/>
  <property name="kdenlive:docproperties.proxyimageminsize">2000</property>
  <property name="kdenlive:docproperties.proxyimagesize">800</property>
  <property name="kdenlive:docproperties.proxyminsize">1000</property>
  <property name="kdenlive:docproperties.proxyparams"/>
  <property name="kdenlive:docproperties.proxyresize">640</property>
  <property name="kdenlive:docproperties.scrollPos">11556</property>
  <property name="kdenlive:docproperties.seekOffset">30000</property>
  <property name="kdenlive:docproperties.version">1.04</property>
  <property name="kdenlive:docproperties.verticalzoom">1</property>
  <property name="kdenlive:docproperties.videoTarget">2</property>
  <property name="kdenlive:docproperties.zonein">0</property>
  <property name="kdenlive:docproperties.zoneout">75</property>
  <property name="kdenlive:docproperties.zoom">8</property>
  <property name="kdenlive:expandedFolders"/>
  <property name="kdenlive:documentnotes"/>
  <property name="kdenlive:docproperties.groups">[
    {
        "children": [
            {
                "data": "0:5468",
                "leaf": "clip",
                "type": "Leaf"
            },
            {
                "data": "2:5468",
                "leaf": "clip",
                "type": "Leaf"
            }
        ],
        "type": "Normal"
    },
    {
        "children": [
            {
                "data": "2:633",
                "leaf": "clip",
                "type": "Leaf"
            },
            {
                "data": "1:633",
                "leaf": "clip",
                "type": "Leaf"
            }
        ],
        "type": "Normal"
    },
    {
        "children": [
            {
                "data": "0:5323",
                "leaf": "clip",
                "type": "Leaf"
            },
            {
                "data": "2:5323",
                "leaf": "clip",
                "type": "Leaf"
            }
        ],
        "type": "Normal"
    },
    {
        "children": [
            {
                "data": "2:438",
                "leaf": "clip",
                "type": "Leaf"
            },
            {
                "data": "1:438",
                "leaf": "clip",
                "type": "Leaf"
            }
        ],
        "type": "Normal"
    },
    {
        "children": [
            {
                "data": "0:4942",
                "leaf": "clip",
                "type": "Leaf"
            },
            {
                "data": "2:4942",
                "leaf": "clip",
                "type": "Leaf"
            }
        ],
        "type": "Normal"
    },
    {
        "children": [
            {
                "data": "2:3616",
                "leaf": "clip",
                "type": "Leaf"
            },
            {
                "data": "1:3616",
                "leaf": "clip",
                "type": "Leaf"
            }
        ],
        "type": "Normal"
    },
    {
        "children": [
            {
                "data": "1:4158",
                "leaf": "clip",
                "type": "Leaf"
            },
            {
                "data": "2:4158",
                "leaf": "clip",
                "type": "Leaf"
            }
        ],
        "type": "Normal"
    },
    {
        "children": [
            {
                "data": "2:3316",
                "leaf": "clip",
                "type": "Leaf"
            },
            {
                "data": "1:3316",
                "leaf": "clip",
                "type": "Leaf"
            }
        ],
        "type": "Normal"
    },
    {
        "children": [
            {
                "data": "2:3194",
                "leaf": "clip",
                "type": "Leaf"
            },
            {
                "data": "1:3194",
                "leaf": "clip",
                "type": "Leaf"
            }
        ],
        "type": "Normal"
    },
    {
        "children": [
            {
                "data": "1:3866",
                "leaf": "clip",
                "type": "Leaf"
            },
            {
                "data": "2:3866",
                "leaf": "clip",
                "type": "Leaf"
            }
        ],
        "type": "Normal"
    },
    {
        "children": [
            {
                "data": "2:7460",
                "leaf": "clip",
                "type": "Leaf"
            },
            {
                "data": "0:7460",
                "leaf": "clip",
                "type": "Leaf"
            }
        ],
        "type": "Normal"
    },
    {
        "children": [
            {
                "data": "2:3122",
                "leaf": "clip",
                "type": "Leaf"
            },
            {
                "data": "1:3122",
                "leaf": "clip",
                "type": "Leaf"
            }
        ],
        "type": "Normal"
    },
    {
        "children": [
            {
                "data": "1:3100",
                "leaf": "clip",
                "type": "Leaf"
            },
            {
                "data": "2:3100",
                "leaf": "clip",
                "type": "Leaf"
            }
        ],
        "type": "Normal"
    },
    {
        "children": [
            {
                "data": "2:2966",
                "leaf": "clip",
                "type": "Leaf"
            },
            {
                "data": "1:2966",
                "leaf": "clip",
                "type": "Leaf"
            }
        ],
        "type": "Normal"
    },
    {
        "children": [
            {
                "data": "2:2239",
                "leaf": "clip",
                "type": "Leaf"
            },
            {
                "data": "1:2239",
                "leaf": "clip",
                "type": "Leaf"
            }
        ],
        "type": "Normal"
    },
    {
        "children": [
            {
                "data": "2:6873",
                "leaf": "clip",
                "type": "Leaf"
            },
            {
                "data": "0:6873",
                "leaf": "clip",
                "type": "Leaf"
            }
        ],
        "type": "Normal"
    },
    {
        "children": [
            {
                "data": "0:5816",
                "leaf": "clip",
                "type": "Leaf"
            },
            {
                "data": "2:5816",
                "leaf": "clip",
                "type": "Leaf"
            }
        ],
        "type": "Normal"
    },
    {
        "children": [
            {
                "data": "2:2566",
                "leaf": "clip",
                "type": "Leaf"
            },
            {
                "data": "1:2566",
                "leaf": "clip",
                "type": "Leaf"
            }
        ],
        "type": "Normal"
    },
    {
        "children": [
            {
                "data": "1:2088",
                "leaf": "clip",
                "type": "Leaf"
            },
            {
                "data": "2:2088",
                "leaf": "clip",
                "type": "Leaf"
            }
        ],
        "type": "Normal"
    },
    {
        "children": [
            {
                "data": "0:6253",
                "leaf": "clip",
                "type": "Leaf"
            },
            {
                "data": "2:6253",
                "leaf": "clip",
                "type": "Leaf"
            }
        ],
        "type": "Normal"
    },
    {
        "children": [
            {
                "data": "0:6961",
                "leaf": "clip",
                "type": "Leaf"
            },
            {
                "data": "2:6961",
                "leaf": "clip",
                "type": "Leaf"
            }
        ],
        "type": "Normal"
    },
    {
        "children": [
            {
                "data": "2:3766",
                "leaf": "clip",
                "type": "Leaf"
            },
            {
                "data": "1:3766",
                "leaf": "clip",
                "type": "Leaf"
            }
        ],
        "type": "Normal"
    },
    {
        "children": [
            {
                "data": "2:7588",
                "leaf": "clip",
                "type": "Leaf"
            },
            {
                "data": "0:7588",
                "leaf": "clip",
                "type": "Leaf"
            }
        ],
        "type": "Normal"
    },
    {
        "children": [
            {
                "data": "2:8269",
                "leaf": "clip",
                "type": "Leaf"
            },
            {
                "data": "0:8269",
                "leaf": "clip",
                "type": "Leaf"
            }
        ],
        "type": "Normal"
    },
    {
        "children": [
            {
                "data": "2:9474",
                "leaf": "clip",
                "type": "Leaf"
            },
            {
                "data": "0:9474",
                "leaf": "clip",
                "type": "Leaf"
            }
        ],
        "type": "Normal"
    },
    {
        "children": [
            {
                "data": "2:366",
                "leaf": "clip",
                "type": "Leaf"
            },
            {
                "data": "1:366",
                "leaf": "clip",
                "type": "Leaf"
            }
        ],
        "type": "Normal"
    },
    {
        "children": [
            {
                "data": "0:5235",
                "leaf": "clip",
                "type": "Leaf"
            },
            {
                "data": "2:5235",
                "leaf": "clip",
                "type": "Leaf"
            }
        ],
        "type": "Normal"
    },
    {
        "children": [
            {
                "data": "0:4742",
                "leaf": "clip",
                "type": "Leaf"
            },
            {
                "data": "2:4742",
                "leaf": "clip",
                "type": "Leaf"
            }
        ],
        "type": "Normal"
    },
    {
        "children": [
            {
                "data": "2:4684",
                "leaf": "clip",
                "type": "Leaf"
            },
            {
                "data": "0:4684",
                "leaf": "clip",
                "type": "Leaf"
            }
        ],
        "type": "Normal"
    },
    {
        "children": [
            {
                "data": "0:5770",
                "leaf": "clip",
                "type": "Leaf"
            },
            {
                "data": "2:5770",
                "leaf": "clip",
                "type": "Leaf"
            }
        ],
        "type": "Normal"
    },
    {
        "children": [
            {
                "data": "0:9166",
                "leaf": "clip",
                "type": "Leaf"
            },
            {
                "data": "2:9166",
                "leaf": "clip",
                "type": "Leaf"
            }
        ],
        "type": "Normal"
    },
    {
        "children": [
            {
                "data": "0:9235",
                "leaf": "clip",
                "type": "Leaf"
            },
            {
                "data": "2:9235",
                "leaf": "clip",
                "type": "Leaf"
            }
        ],
        "type": "Normal"
    },
    {
        "children": [
            {
                "data": "0:5771",
                "leaf": "clip",
                "type": "Leaf"
            },
            {
                "data": "2:5771",
                "leaf": "clip",
                "type": "Leaf"
            }
        ],
        "type": "Normal"
    },
    {
        "children": [
            {
                "data": "0:8450",
                "leaf": "clip",
                "type": "Leaf"
            },
            {
                "data": "2:8450",
                "leaf": "clip",
                "type": "Leaf"
            }
        ],
        "type": "Normal"
    },
    {
        "children": [
            {
                "data": "2:11791",
                "leaf": "clip",
                "type": "Leaf"
            },
            {
                "data": "1:11791",
                "leaf": "clip",
                "type": "Leaf"
            }
        ],
        "type": "AVSplit"
    },
    {
        "children": [
            {
                "data": "2:9712",
                "leaf": "clip",
                "type": "Leaf"
            },
            {
                "data": "0:9712",
                "leaf": "clip",
                "type": "Leaf"
            }
        ],
        "type": "Normal"
    },
    {
        "children": [
            {
                "data": "0:7973",
                "leaf": "clip",
                "type": "Leaf"
            },
            {
                "data": "2:7973",
                "leaf": "clip",
                "type": "Leaf"
            }
        ],
        "type": "Normal"
    },
    {
        "children": [
            {
                "data": "2:33",
                "leaf": "clip",
                "type": "Leaf"
            },
            {
                "data": "1:33",
                "leaf": "clip",
                "type": "Leaf"
            }
        ],
        "type": "Normal"
    },
    {
        "children": [
            {
                "data": "0:6887",
                "leaf": "clip",
                "type": "Leaf"
            },
            {
                "data": "2:6887",
                "leaf": "clip",
                "type": "Leaf"
            }
        ],
        "type": "Normal"
    },
    {
        "children": [
            {
                "data": "2:4822",
                "leaf": "clip",
                "type": "Leaf"
            },
            {
                "data": "0:4822",
                "leaf": "clip",
                "type": "Leaf"
            }
        ],
        "type": "Normal"
    },
    {
        "children": [
            {
                "data": "2:4389",
                "leaf": "clip",
                "type": "Leaf"
            },
            {
                "data": "1:4389",
                "leaf": "clip",
                "type": "Leaf"
            }
        ],
        "type": "Normal"
    },
    {
        "children": [
            {
                "data": "2:7647",
                "leaf": "clip",
                "type": "Leaf"
            },
            {
                "data": "0:7647",
                "leaf": "clip",
                "type": "Leaf"
            }
        ],
        "type": "Normal"
    },
    {
        "children": [
            {
                "data": "2:3794",
                "leaf": "clip",
                "type": "Leaf"
            },
            {
                "data": "1:3794",
                "leaf": "clip",
                "type": "Leaf"
            }
        ],
        "type": "Normal"
    },
    {
        "children": [
            {
                "data": "2:7154",
                "leaf": "clip",
                "type": "Leaf"
            },
            {
                "data": "0:7154",
                "leaf": "clip",
                "type": "Leaf"
            }
        ],
        "type": "Normal"
    },
    {
        "children": [
            {
                "data": "2:6250",
                "leaf": "clip",
                "type": "Leaf"
            },
            {
                "data": "0:6250",
                "leaf": "clip",
                "type": "Leaf"
            }
        ],
        "type": "Normal"
    },
    {
        "children": [
            {
                "data": "0:9793",
                "leaf": "clip",
                "type": "Leaf"
            },
            {
                "data": "2:9793",
                "leaf": "clip",
                "type": "Leaf"
            }
        ],
        "type": "Normal"
    },
    {
        "children": [
            {
                "data": "0:6566",
                "leaf": "clip",
                "type": "Leaf"
            },
            {
                "data": "2:6566",
                "leaf": "clip",
                "type": "Leaf"
            }
        ],
        "type": "Normal"
    },
    {
        "children": [
            {
                "data": "2:61",
                "leaf": "clip",
                "type": "Leaf"
            },
            {
                "data": "1:61",
                "leaf": "clip",
                "type": "Leaf"
            }
        ],
        "type": "Normal"
    },
    {
        "children": [
            {
                "data": "0:8084",
                "leaf": "clip",
                "type": "Leaf"
            },
            {
                "data": "2:8084",
                "leaf": "clip",
                "type": "Leaf"
            }
        ],
        "type": "Normal"
    },
    {
        "children": [
            {
                "data": "2:9973",
                "leaf": "clip",
                "type": "Leaf"
            },
            {
                "data": "1:9973",
                "leaf": "clip",
                "type": "Leaf"
            }
        ],
        "type": "AVSplit"
    },
    {
        "children": [
            {
                "data": "2:7740",
                "leaf": "clip",
                "type": "Leaf"
            },
            {
                "data": "0:7740",
                "leaf": "clip",
                "type": "Leaf"
            }
        ],
        "type": "Normal"
    },
    {
        "children": [
            {
                "data": "2:755",
                "leaf": "clip",
                "type": "Leaf"
            },
            {
                "data": "1:755",
                "leaf": "clip",
                "type": "Leaf"
            }
        ],
        "type": "Normal"
    },
    {
        "children": [
            {
                "data": "0:5512",
                "leaf": "clip",
                "type": "Leaf"
            },
            {
                "data": "2:5512",
                "leaf": "clip",
                "type": "Leaf"
            }
        ],
        "type": "Normal"
    },
    {
        "children": [
            {
                "data": "2:8988",
                "leaf": "clip",
                "type": "Leaf"
            },
            {
                "data": "0:8988",
                "leaf": "clip",
                "type": "Leaf"
            }
        ],
        "type": "Normal"
    },
    {
        "children": [
            {
                "data": "2:7307",
                "leaf": "clip",
                "type": "Leaf"
            },
            {
                "data": "0:7307",
                "leaf": "clip",
                "type": "Leaf"
            }
        ],
        "type": "Normal"
    },
    {
        "children": [
            {
                "data": "2:0",
                "leaf": "clip",
                "type": "Leaf"
            },
            {
                "data": "1:0",
                "leaf": "clip",
                "type": "Leaf"
            }
        ],
        "type": "Normal"
    },
    {
        "children": [
            {
                "data": "0:9289",
                "leaf": "clip",
                "type": "Leaf"
            },
            {
                "data": "2:9289",
                "leaf": "clip",
                "type": "Leaf"
            }
        ],
        "type": "Normal"
    },
    {
        "children": [
            {
                "data": "2:6248",
                "leaf": "clip",
                "type": "Leaf"
            },
            {
                "data": "0:6248",
                "leaf": "clip",
                "type": "Leaf"
            }
        ],
        "type": "Normal"
    },
    {
        "children": [
            {
                "data": "0:5040",
                "leaf": "clip",
                "type": "Leaf"
            },
            {
                "data": "2:5040",
                "leaf": "clip",
                "type": "Leaf"
            }
        ],
        "type": "Normal"
    },
    {
        "children": [
            {
                "data": "0:8899",
                "leaf": "clip",
                "type": "Leaf"
            },
            {
                "data": "2:8899",
                "leaf": "clip",
                "type": "Leaf"
            }
        ],
        "type": "Normal"
    },
    {
        "children": [
            {
                "data": "0:9359",
                "leaf": "clip",
                "type": "Leaf"
            },
            {
                "data": "2:9359",
                "leaf": "clip",
                "type": "Leaf"
            }
        ],
        "type": "Normal"
    },
    {
        "children": [
            {
                "data": "2:6448",
                "leaf": "clip",
                "type": "Leaf"
            },
            {
                "data": "0:6448",
                "leaf": "clip",
                "type": "Leaf"
            }
        ],
        "type": "Normal"
    },
    {
        "children": [
            {
                "data": "0:7174",
                "leaf": "clip",
                "type": "Leaf"
            },
            {
                "data": "2:7174",
                "leaf": "clip",
                "type": "Leaf"
            }
        ],
        "type": "Normal"
    },
    {
        "children": [
            {
                "data": "1:3600",
                "leaf": "clip",
                "type": "Leaf"
            },
            {
                "data": "2:3600",
                "leaf": "clip",
                "type": "Leaf"
            }
        ],
        "type": "Normal"
    },
    {
        "children": [
            {
                "data": "2:6226",
                "leaf": "clip",
                "type": "Leaf"
            },
            {
                "data": "0:6226",
                "leaf": "clip",
                "type": "Leaf"
            }
        ],
        "type": "Normal"
    },
    {
        "children": [
            {
                "data": "2:1794",
                "leaf": "clip",
                "type": "Leaf"
            },
            {
                "data": "1:1794",
                "leaf": "clip",
                "type": "Leaf"
            }
        ],
        "type": "Normal"
    },
    {
        "children": [
            {
                "data": "2:8171",
                "leaf": "clip",
                "type": "Leaf"
            },
            {
                "data": "0:8171",
                "leaf": "clip",
                "type": "Leaf"
            }
        ],
        "type": "Normal"
    },
    {
        "children": [
            {
                "data": "2:288",
                "leaf": "clip",
                "type": "Leaf"
            },
            {
                "data": "1:288",
                "leaf": "clip",
                "type": "Leaf"
            }
        ],
        "type": "Normal"
    },
    {
        "children": [
            {
                "data": "0:4915",
                "leaf": "clip",
                "type": "Leaf"
            },
            {
                "data": "2:4915",
                "leaf": "clip",
                "type": "Leaf"
            }
        ],
        "type": "Normal"
    },
    {
        "children": [
            {
                "data": "0:8514",
                "leaf": "clip",
                "type": "Leaf"
            },
            {
                "data": "2:8514",
                "leaf": "clip",
                "type": "Leaf"
            }
        ],
        "type": "Normal"
    },
    {
        "children": [
            {
                "data": "2:989",
                "leaf": "clip",
                "type": "Leaf"
            },
            {
                "data": "1:989",
                "leaf": "clip",
                "type": "Leaf"
            }
        ],
        "type": "Normal"
    },
    {
        "children": [
            {
                "data": "1:905",
                "leaf": "clip",
                "type": "Leaf"
            },
            {
                "data": "2:905",
                "leaf": "clip",
                "type": "Leaf"
            }
        ],
        "type": "Normal"
    },
    {
        "children": [
            {
                "data": "1:1272",
                "leaf": "clip",
                "type": "Leaf"
            },
            {
                "data": "2:1272",
                "leaf": "clip",
                "type": "Leaf"
            }
        ],
        "type": "Normal"
    },
    {
        "children": [
            {
                "data": "0:5987",
                "leaf": "clip",
                "type": "Leaf"
            },
            {
                "data": "2:5987",
                "leaf": "clip",
                "type": "Leaf"
            }
        ],
        "type": "Normal"
    },
    {
        "children": [
            {
                "data": "1:1183",
                "leaf": "clip",
                "type": "Leaf"
            },
            {
                "data": "2:1183",
                "leaf": "clip",
                "type": "Leaf"
            }
        ],
        "type": "Normal"
    },
    {
        "children": [
            {
                "data": "2:6115",
                "leaf": "clip",
                "type": "Leaf"
            },
            {
                "data": "0:6115",
                "leaf": "clip",
                "type": "Leaf"
            }
        ],
        "type": "Normal"
    },
    {
        "children": [
            {
                "data": "2:2522",
                "leaf": "clip",
                "type": "Leaf"
            },
            {
                "data": "1:2522",
                "leaf": "clip",
                "type": "Leaf"
            }
        ],
        "type": "Normal"
    },
    {
        "children": [
            {
                "data": "1:1366",
                "leaf": "clip",
                "type": "Leaf"
            },
            {
                "data": "2:1366",
                "leaf": "clip",
                "type": "Leaf"
            }
        ],
        "type": "Normal"
    },
    {
        "children": [
            {
                "data": "2:6215",
                "leaf": "clip",
                "type": "Leaf"
            },
            {
                "data": "0:6215",
                "leaf": "clip",
                "type": "Leaf"
            }
        ],
        "type": "Normal"
    }
]
</property>
  <property name="kdenlive:docproperties.rendercategory">Generic (HD for web, mobile devices...)</property>
  <property name="kdenlive:docproperties.rendercustomquality">-1</property>
  <property name="kdenlive:docproperties.renderendguide">-1</property>
  <property name="kdenlive:docproperties.renderexportaudio">0</property>
  <property name="kdenlive:docproperties.rendermode">0</property>
  <property name="kdenlive:docproperties.renderplay">0</property>
  <property name="kdenlive:docproperties.renderpreview">0</property>
  <property name="kdenlive:docproperties.renderprofile">MP4-H264/AAC</property>
  <property name="kdenlive:docproperties.renderratio">1</property>
  <property name="kdenlive:docproperties.renderrescale">0</property>
  <property name="kdenlive:docproperties.renderrescaleheight">360</property>
  <property name="kdenlive:docproperties.renderrescalewidth">640</property>
  <property name="kdenlive:docproperties.renderspeed">6</property>
  <property name="kdenlive:docproperties.renderstartguide">-1</property>
  <property name="kdenlive:docproperties.rendertcoverlay">0</property>
  <property name="kdenlive:docproperties.rendertctype">-1</property>
  <property name="kdenlive:docproperties.rendertwopass">0</property>
  <property name="kdenlive:docproperties.renderurl">C:/Users/Victor/Videos/Lista.mp4</property>
  <property name="xml_retain">1</property>
  <entry producer="producer0" in="00:00:00.000" out="00:03:29.800"/>
  <entry producer="producer1" in="00:00:00.000" out="00:03:26.867"/>
  <entry producer="producer2" in="00:00:00.000" out="00:04:08.933"/>
  <entry producer="producer3" in="00:00:00.000" out="00:04:05.667"/>
  <entry producer="producer4" in="00:00:00.000" out="00:01:00.567"/>
  <entry producer="producer5" in="00:00:00.000" out="00:01:25.533"/>
 </playlist>
 <producer id="black_track" in="00:00:00.000" out="00:24:38.600">
  <property name="length">2147483647</property>
  <property name="eof">continue</property>
  <property name="resource">black</property>
  <property name="aspect_ratio">1</property>
  <property name="mlt_service">color</property>
  <property name="mlt_image_format">rgba</property>
  <property name="set.test_audio">0</property>
 </producer>
 <producer id="producer6" in="00:00:00.000" out="00:04:05.667">
  <property name="length">7371</property>
  <property name="eof">pause</property>
  <property name="resource">C:/Users/Victor/Downloads/Questão 2.mp4</property>
  <property name="meta.media.nb_streams">1</property>
  <property name="meta.media.0.stream.type">audio</property>
  <property name="meta.media.0.codec.sample_fmt">fltp</property>
  <property name="meta.media.0.codec.sample_rate">16000</property>
  <property name="meta.media.0.codec.channels">1</property>
  <property name="meta.media.0.codec.name">aac</property>
  <property name="meta.media.0.codec.long_name">AAC (Advanced Audio Coding)</property>
  <property name="meta.media.0.codec.bit_rate">96000</property>
  <property name="meta.attr.0.stream.creation_time.markup">2022-11-19T03:31:38.000000Z</property>
  <property name="meta.attr.0.stream.language.markup">eng</property>
  <property name="meta.attr.0.stream.handler_name.markup">SoundHandle</property>
  <property name="meta.attr.0.stream.vendor_id.markup">[0][0][0][0]</property>
  <property name="meta.attr.major_brand.markup">mp42</property>
  <property name="meta.attr.minor_version.markup">0</property>
  <property name="meta.attr.compatible_brands.markup">isommp42</property>
  <property name="meta.attr.creation_time.markup">2022-11-19T03:31:38.000000Z</property>
  <property name="meta.attr.com.android.version.markup">10</property>
  <property name="seekable">1</property>
  <property name="audio_index">0</property>
  <property name="video_index">-1</property>
  <property name="mute_on_pause">0</property>
  <property name="mlt_service">avformat-novalidate</property>
  <property name="kdenlive:clipname"/>
  <property name="kdenlive:clip_type">1</property>
  <property name="kdenlive:folderid">-1</property>
  <property name="kdenlive:id">5</property>
  <property name="kdenlive:file_size">2967609</property>
  <property name="kdenlive:file_hash">af261ab1556b8ea2c2ff53ccd23db81f</property>
  <property name="kdenlive:audio_max0">151</property>
  <property name="xml">was here</property>
  <property name="set.test_audio">0</property>
  <property name="set.test_image">1</property>
 </producer>
 <playlist id="playlist0">
  <blank length="00:02:36.133"/>
  <entry producer="producer6" in="00:00:04.533" out="00:00:06.433">
   <property name="kdenlive:id">5</property>
  </entry>
  <entry producer="producer6" in="00:00:07.033" out="00:00:09.667">
   <property name="kdenlive:id">5</property>
  </entry>
  <entry producer="producer6" in="00:00:10.833" out="00:00:13.900">
   <property name="kdenlive:id">5</property>
  </entry>
  <entry producer="producer6" in="00:00:14.933" out="00:00:15.800">
   <property name="kdenlive:id">5</property>
  </entry>
  <entry producer="producer6" in="00:00:16.400" out="00:00:19.633">
   <property name="kdenlive:id">5</property>
  </entry>
  <entry producer="producer6" in="00:00:20.600" out="00:00:27.067">
   <property name="kdenlive:id">5</property>
  </entry>
  <entry producer="producer6" in="00:00:27.833" out="00:00:30.733">
   <property name="kdenlive:id">5</property>
  </entry>
  <entry producer="producer6" in="00:00:32.633" out="00:00:37.433">
   <property name="kdenlive:id">5</property>
  </entry>
  <entry producer="producer6" in="00:00:38.033" out="00:00:39.467">
   <property name="kdenlive:id">5</property>
  </entry>
  <entry producer="producer6" in="00:00:40.267" out="00:00:48.833">
   <property name="kdenlive:id">5</property>
  </entry>
  <entry producer="producer6" in="00:00:47.867" out="00:00:47.867">
   <property name="kdenlive:id">5</property>
  </entry>
  <entry producer="producer6" in="00:00:50.267" out="00:00:51.733">
   <property name="kdenlive:id">5</property>
  </entry>
  <entry producer="producer6" in="00:00:52.333" out="00:00:58.000">
   <property name="kdenlive:id">5</property>
  </entry>
  <entry producer="producer6" in="00:00:58.033" out="00:01:02.267">
   <property name="kdenlive:id">5</property>
  </entry>
  <entry producer="producer6" in="00:01:03.033" out="00:01:06.333">
   <property name="kdenlive:id">5</property>
  </entry>
  <entry producer="producer6" in="00:01:06.367" out="00:01:06.700">
   <property name="kdenlive:id">5</property>
  </entry>
  <entry producer="producer6" in="00:01:06.733" out="00:01:07.433">
   <property name="kdenlive:id">5</property>
  </entry>
  <entry producer="producer6" in="00:01:07.467" out="00:01:07.500">
   <property name="kdenlive:id">5</property>
  </entry>
  <entry producer="producer6" in="00:01:10.500" out="00:01:10.567">
   <property name="kdenlive:id">5</property>
  </entry>
  <entry producer="producer6" in="00:01:10.600" out="00:01:17.067">
   <property name="kdenlive:id">5</property>
  </entry>
  <entry producer="producer6" in="00:01:19.700" out="00:01:23.600">
   <property name="kdenlive:id">5</property>
  </entry>
  <entry producer="producer6" in="00:01:27.533" out="00:01:37.733">
   <property name="kdenlive:id">5</property>
  </entry>
  <entry producer="producer6" in="00:01:39.800" out="00:01:40.233">
   <property name="kdenlive:id">5</property>
  </entry>
  <entry producer="producer6" in="00:01:41.733" out="00:01:44.167">
   <property name="kdenlive:id">5</property>
  </entry>
  <entry producer="producer6" in="00:01:44.767" out="00:01:51.167">
   <property name="kdenlive:id">5</property>
  </entry>
  <entry producer="producer6" in="00:02:04.733" out="00:02:05.367">
   <property name="kdenlive:id">5</property>
  </entry>
  <entry producer="producer6" in="00:02:06.833" out="00:02:11.233">
   <property name="kdenlive:id">5</property>
  </entry>
  <entry producer="producer6" in="00:02:12.100" out="00:02:17.167">
   <property name="kdenlive:id">5</property>
  </entry>
  <entry producer="producer6" in="00:02:19.167" out="00:02:23.400">
   <property name="kdenlive:id">5</property>
  </entry>
  <entry producer="producer6" in="00:02:25.167" out="00:02:27.100">
   <property name="kdenlive:id">5</property>
  </entry>
  <entry producer="producer6" in="00:02:27.500" out="00:02:30.567">
   <property name="kdenlive:id">5</property>
  </entry>
  <entry producer="producer6" in="00:02:30.967" out="00:02:38.700">
   <property name="kdenlive:id">5</property>
  </entry>
  <entry producer="producer6" in="00:02:40.100" out="00:02:43.767">
   <property name="kdenlive:id">5</property>
  </entry>
  <entry producer="producer6" in="00:02:44.467" out="00:02:47.333">
   <property name="kdenlive:id">5</property>
  </entry>
  <entry producer="producer6" in="00:02:47.367" out="00:02:50.600">
   <property name="kdenlive:id">5</property>
  </entry>
  <entry producer="producer6" in="00:02:53.267" out="00:02:59.267">
   <property name="kdenlive:id">5</property>
  </entry>
  <entry producer="producer6" in="00:03:02.933" out="00:03:05.033">
   <property name="kdenlive:id">5</property>
  </entry>
  <entry producer="producer6" in="00:03:05.800" out="00:03:18.600">
   <property name="kdenlive:id">5</property>
  </entry>
  <entry producer="producer6" in="00:03:19.633" out="00:03:22.567">
   <property name="kdenlive:id">5</property>
  </entry>
  <entry producer="producer6" in="00:03:23.100" out="00:03:29.000">
   <property name="kdenlive:id">5</property>
  </entry>
  <entry producer="producer6" in="00:03:30.500" out="00:03:32.767">
   <property name="kdenlive:id">5</property>
  </entry>
  <entry producer="producer6" in="00:03:33.800" out="00:03:35.567">
   <property name="kdenlive:id">5</property>
  </entry>
  <entry producer="producer6" in="00:03:36.200" out="00:03:38.500">
   <property name="kdenlive:id">5</property>
  </entry>
  <entry producer="producer6" in="00:03:40.767" out="00:03:44.567">
   <property name="kdenlive:id">5</property>
  </entry>
  <entry producer="producer6" in="00:03:45.833" out="00:03:53.733">
   <property name="kdenlive:id">5</property>
  </entry>
  <entry producer="producer6" in="00:03:54.500" out="00:03:57.167">
   <property name="kdenlive:id">5</property>
  </entry>
  <entry producer="producer6" in="00:03:58.867" out="00:04:04.833">
   <property name="kdenlive:id">5</property>
  </entry>
 </playlist>
 <playlist id="playlist1"/>
 <tractor id="tractor0" in="00:00:00.000" out="00:05:32.400">
  <property name="kdenlive:track_name">A2</property>
  <property name="kdenlive:audio_track">1</property>
  <property name="kdenlive:trackheight">67</property>
  <property name="kdenlive:timeline_active">1</property>
  <track hide="video" producer="playlist0"/>
  <track hide="video" producer="playlist1"/>
  <filter id="filter0">
   <property name="window">75</property>
   <property name="max_gain">20dB</property>
   <property name="mlt_service">volume</property>
   <property name="internal_added">237</property>
   <property name="disable">1</property>
  </filter>
  <filter id="filter1">
   <property name="channel">-1</property>
   <property name="mlt_service">panner</property>
   <property name="internal_added">237</property>
   <property name="start">0.5</property>
   <property name="disable">1</property>
  </filter>
  <filter id="filter2">
   <property name="iec_scale">0</property>
   <property name="mlt_service">audiolevel</property>
   <property name="dbpeak">1</property>
   <property name="disable">1</property>
  </filter>
 </tractor>
 <producer id="producer7" in="00:00:00.000" out="00:03:26.867">
  <property name="length">6207</property>
  <property name="eof">pause</property>
  <property name="resource">C:/Users/Victor/Downloads/Questão 1.mp4</property>
  <property name="meta.media.nb_streams">1</property>
  <property name="meta.media.0.stream.type">audio</property>
  <property name="meta.media.0.codec.sample_fmt">fltp</property>
  <property name="meta.media.0.codec.sample_rate">16000</property>
  <property name="meta.media.0.codec.channels">1</property>
  <property name="meta.media.0.codec.name">aac</property>
  <property name="meta.media.0.codec.long_name">AAC (Advanced Audio Coding)</property>
  <property name="meta.media.0.codec.bit_rate">96000</property>
  <property name="meta.attr.0.stream.creation_time.markup">2022-11-19T03:13:03.000000Z</property>
  <property name="meta.attr.0.stream.language.markup">eng</property>
  <property name="meta.attr.0.stream.handler_name.markup">SoundHandle</property>
  <property name="meta.attr.0.stream.vendor_id.markup">[0][0][0][0]</property>
  <property name="meta.attr.major_brand.markup">mp42</property>
  <property name="meta.attr.minor_version.markup">0</property>
  <property name="meta.attr.compatible_brands.markup">isommp42</property>
  <property name="meta.attr.creation_time.markup">2022-11-19T03:13:03.000000Z</property>
  <property name="meta.attr.com.android.version.markup">10</property>
  <property name="seekable">1</property>
  <property name="audio_index">0</property>
  <property name="video_index">-1</property>
  <property name="mute_on_pause">0</property>
  <property name="mlt_service">avformat-novalidate</property>
  <property name="kdenlive:clipname"/>
  <property name="kdenlive:clip_type">1</property>
  <property name="kdenlive:folderid">-1</property>
  <property name="kdenlive:id">3</property>
  <property name="kdenlive:file_size">2499777</property>
  <property name="kdenlive:file_hash">bede4d6e350f2df1e090332ebdd5754e</property>
  <property name="kdenlive:audio_max0">168</property>
  <property name="xml">was here</property>
  <property name="set.test_audio">0</property>
  <property name="set.test_image">1</property>
 </producer>
 <producer id="producer8" in="00:00:00.000" out="00:01:00.567">
  <property name="length">1818</property>
  <property name="eof">pause</property>
  <property name="resource">C:/Users/Victor/Downloads/[Editado] Questão 3.mp4</property>
  <property name="audio_index">1</property>
  <property name="video_index">0</property>
  <property name="mute_on_pause">0</property>
  <property name="mlt_service">avformat-novalidate</property>
  <property name="seekable">1</property>
  <property name="aspect_ratio">1</property>
  <property name="format">3</property>
  <property name="kdenlive:clipname"/>
  <property name="kdenlive:clip_type">0</property>
  <property name="kdenlive:folderid">-1</property>
  <property name="kdenlive:id">6</property>
  <property name="kdenlive:file_size">4851290</property>
  <property name="kdenlive:file_hash">2f536ed1c05d203fe92694e847029411</property>
  <property name="kdenlive:audio_max1">140</property>
  <property name="xml">was here</property>
  <property name="meta.media.nb_streams">2</property>
  <property name="meta.media.0.stream.type">video</property>
  <property name="meta.media.0.stream.frame_rate">60.0165</property>
  <property name="meta.media.0.stream.sample_aspect_ratio">1</property>
  <property name="meta.media.0.codec.width">1920</property>
  <property name="meta.media.0.codec.height">1080</property>
  <property name="meta.media.0.codec.rotate">0</property>
  <property name="meta.media.0.codec.pix_fmt">yuv420p</property>
  <property name="meta.media.0.codec.sample_aspect_ratio">1</property>
  <property name="meta.media.0.codec.colorspace">709</property>
  <property name="meta.media.0.codec.name">h264</property>
  <property name="meta.media.0.codec.long_name">H.264 / AVC / MPEG-4 AVC / MPEG-4 part 10</property>
  <property name="meta.media.0.codec.bit_rate">366953</property>
  <property name="meta.attr.0.stream.handler_name.markup">VideoHandler</property>
  <property name="meta.attr.0.stream.vendor_id.markup">[0][0][0][0]</property>
  <property name="meta.media.1.stream.type">audio</property>
  <property name="meta.media.1.codec.sample_fmt">fltp</property>
  <property name="meta.media.1.codec.sample_rate">48000</property>
  <property name="meta.media.1.codec.channels">2</property>
  <property name="meta.media.1.codec.name">aac</property>
  <property name="meta.media.1.codec.long_name">AAC (Advanced Audio Coding)</property>
  <property name="meta.media.1.codec.bit_rate">260687</property>
  <property name="meta.attr.1.stream.handler_name.markup">SoundHandler</property>
  <property name="meta.attr.1.stream.vendor_id.markup">[0][0][0][0]</property>
  <property name="meta.attr.major_brand.markup">isom</property>
  <property name="meta.attr.minor_version.markup">512</property>
  <property name="meta.attr.compatible_brands.markup">isomiso2avc1mp41</property>
  <property name="meta.attr.encoder.markup">Lavf58.76.100</property>
  <property name="meta.media.sample_aspect_num">1</property>
  <property name="meta.media.sample_aspect_den">1</property>
  <property name="meta.media.frame_rate_num">43632</property>
  <property name="meta.media.frame_rate_den">727</property>
  <property name="meta.media.colorspace">709</property>
  <property name="meta.media.color_trc">2</property>
  <property name="meta.media.has_b_frames">2</property>
  <property name="meta.media.width">1920</property>
  <property name="meta.media.height">1080</property>
  <property name="meta.media.color_range">mpeg</property>
  <property name="meta.media.top_field_first">0</property>
  <property name="meta.media.progressive">1</property>
  <property name="set.test_audio">0</property>
  <property name="set.test_image">1</property>
 </producer>
 <producer id="producer9" in="00:00:00.000" out="00:01:25.533">
  <property name="length">2567</property>
  <property name="eof">pause</property>
  <property name="resource">C:/Users/Victor/Downloads/[Editado] Questão 4.mp4</property>
  <property name="audio_index">1</property>
  <property name="video_index">0</property>
  <property name="mute_on_pause">0</property>
  <property name="mlt_service">avformat-novalidate</property>
  <property name="seekable">1</property>
  <property name="aspect_ratio">1</property>
  <property name="format">3</property>
  <property name="kdenlive:clipname"/>
  <property name="kdenlive:clip_type">0</property>
  <property name="kdenlive:folderid">-1</property>
  <property name="kdenlive:id">7</property>
  <property name="kdenlive:file_size">8145690</property>
  <property name="kdenlive:file_hash">9da6995c38be18c2105a2f19758eb016</property>
  <property name="kdenlive:audio_max1">135</property>
  <property name="xml">was here</property>
  <property name="meta.media.nb_streams">2</property>
  <property name="meta.media.0.stream.type">video</property>
  <property name="meta.media.0.stream.frame_rate">60.0117</property>
  <property name="meta.media.0.stream.sample_aspect_ratio">1</property>
  <property name="meta.media.0.codec.width">1920</property>
  <property name="meta.media.0.codec.height">1080</property>
  <property name="meta.media.0.codec.rotate">0</property>
  <property name="meta.media.0.codec.pix_fmt">yuv420p</property>
  <property name="meta.media.0.codec.sample_aspect_ratio">1</property>
  <property name="meta.media.0.codec.colorspace">709</property>
  <property name="meta.media.0.codec.name">h264</property>
  <property name="meta.media.0.codec.long_name">H.264 / AVC / MPEG-4 AVC / MPEG-4 part 10</property>
  <property name="meta.media.0.codec.bit_rate">487657</property>
  <property name="meta.attr.0.stream.handler_name.markup">VideoHandler</property>
  <property name="meta.attr.0.stream.vendor_id.markup">[0][0][0][0]</property>
  <property name="meta.media.1.stream.type">audio</property>
  <property name="meta.media.1.codec.sample_fmt">fltp</property>
  <property name="meta.media.1.codec.sample_rate">48000</property>
  <property name="meta.media.1.codec.channels">2</property>
  <property name="meta.media.1.codec.name">aac</property>
  <property name="meta.media.1.codec.long_name">AAC (Advanced Audio Coding)</property>
  <property name="meta.media.1.codec.bit_rate">261112</property>
  <property name="meta.attr.1.stream.handler_name.markup">SoundHandler</property>
  <property name="meta.attr.1.stream.vendor_id.markup">[0][0][0][0]</property>
  <property name="meta.attr.major_brand.markup">isom</property>
  <property name="meta.attr.minor_version.markup">512</property>
  <property name="meta.attr.compatible_brands.markup">isomiso2avc1mp41</property>
  <property name="meta.attr.encoder.markup">Lavf58.76.100</property>
  <property name="meta.media.sample_aspect_num">1</property>
  <property name="meta.media.sample_aspect_den">1</property>
  <property name="meta.media.frame_rate_num">102680</property>
  <property name="meta.media.frame_rate_den">1711</property>
  <property name="meta.media.colorspace">709</property>
  <property name="meta.media.color_trc">2</property>
  <property name="meta.media.has_b_frames">2</property>
  <property name="meta.media.width">1920</property>
  <property name="meta.media.height">1080</property>
  <property name="meta.media.color_range">mpeg</property>
  <property name="meta.media.top_field_first">0</property>
  <property name="meta.media.progressive">1</property>
  <property name="set.test_audio">0</property>
  <property name="set.test_image">1</property>
 </producer>
 <playlist id="playlist2">
  <property name="kdenlive:audio_track">1</property>
  <entry producer="producer7" in="00:00:06.500" out="00:00:07.567">
   <property name="kdenlive:id">3</property>
  </entry>
  <entry producer="producer7" in="00:00:07.767" out="00:00:08.667">
   <property name="kdenlive:id">3</property>
  </entry>
  <entry producer="producer7" in="00:00:09.233" out="00:00:16.767">
   <property name="kdenlive:id">3</property>
  </entry>
  <entry producer="producer7" in="00:00:17.733" out="00:00:20.300">
   <property name="kdenlive:id">3</property>
  </entry>
  <entry producer="producer7" in="00:00:20.900" out="00:00:23.267">
   <property name="kdenlive:id">3</property>
  </entry>
  <entry producer="producer7" in="00:00:24.067" out="00:00:30.533">
   <property name="kdenlive:id">3</property>
  </entry>
  <entry producer="producer7" in="00:00:31.667" out="00:00:35.700">
   <property name="kdenlive:id">3</property>
  </entry>
  <entry producer="producer7" in="00:00:36.100" out="00:00:41.067">
   <property name="kdenlive:id">3</property>
  </entry>
  <entry producer="producer7" in="00:00:42.033" out="00:00:44.800">
   <property name="kdenlive:id">3</property>
  </entry>
  <entry producer="producer7" in="00:00:49.267" out="00:00:55.700">
   <property name="kdenlive:id">3</property>
  </entry>
  <entry producer="producer7" in="00:00:56.467" out="00:00:59.400">
   <property name="kdenlive:id">3</property>
  </entry>
  <entry producer="producer7" in="00:01:02.767" out="00:01:05.867">
   <property name="kdenlive:id">3</property>
  </entry>
  <entry producer="producer7" in="00:01:06.267" out="00:01:20.500">
   <property name="kdenlive:id">3</property>
  </entry>
  <entry producer="producer7" in="00:01:20.533" out="00:01:30.300">
   <property name="kdenlive:id">3</property>
  </entry>
  <entry producer="producer7" in="00:01:32.567" out="00:01:37.567">
   <property name="kdenlive:id">3</property>
  </entry>
  <entry producer="producer7" in="00:01:42.767" out="00:01:52.167">
   <property name="kdenlive:id">3</property>
  </entry>
  <entry producer="producer7" in="00:01:55.533" out="00:01:56.967">
   <property name="kdenlive:id">3</property>
  </entry>
  <entry producer="producer7" in="00:02:00.167" out="00:02:13.467">
   <property name="kdenlive:id">3</property>
  </entry>
  <entry producer="producer7" in="00:02:13.700" out="00:02:18.133">
   <property name="kdenlive:id">3</property>
  </entry>
  <entry producer="producer7" in="00:02:18.167" out="00:02:18.867">
   <property name="kdenlive:id">3</property>
  </entry>
  <entry producer="producer7" in="00:02:18.900" out="00:02:21.267">
   <property name="kdenlive:id">3</property>
  </entry>
  <entry producer="producer7" in="00:02:22.233" out="00:02:26.267">
   <property name="kdenlive:id">3</property>
  </entry>
  <entry producer="producer7" in="00:02:27.800" out="00:02:37.233">
   <property name="kdenlive:id">3</property>
  </entry>
  <entry producer="producer7" in="00:02:37.267" out="00:02:37.767">
   <property name="kdenlive:id">3</property>
  </entry>
  <entry producer="producer7" in="00:02:40.533" out="00:02:45.500">
   <property name="kdenlive:id">3</property>
  </entry>
  <entry producer="producer7" in="00:02:46.467" out="00:02:47.367">
   <property name="kdenlive:id">3</property>
  </entry>
  <entry producer="producer7" in="00:02:49.067" out="00:02:51.433">
   <property name="kdenlive:id">3</property>
  </entry>
  <entry producer="producer7" in="00:02:52.767" out="00:03:02.467">
   <property name="kdenlive:id">3</property>
  </entry>
  <entry producer="producer7" in="00:03:05.667" out="00:03:13.333">
   <property name="kdenlive:id">3</property>
  </entry>
  <entry producer="producer7" in="00:03:15.800" out="00:03:25.600">
   <property name="kdenlive:id">3</property>
  </entry>
  <blank length="00:02:56.300"/>
  <entry producer="producer8" in="00:00:00.000" out="00:01:00.567">
   <property name="kdenlive:id">6</property>
  </entry>
  <entry producer="producer9" in="00:00:00.000" out="00:01:25.533">
   <property name="kdenlive:id">7</property>
  </entry>
 </playlist>
 <playlist id="playlist3">
  <property name="kdenlive:audio_track">1</property>
 </playlist>
 <tractor id="tractor1" in="00:00:00.000" out="00:07:58.567">
  <property name="kdenlive:audio_track">1</property>
  <property name="kdenlive:trackheight">31</property>
  <property name="kdenlive:timeline_active">1</property>
  <property name="kdenlive:collapsed">0</property>
  <property name="kdenlive:thumbs_format"/>
  <property name="kdenlive:audio_rec"/>
  <track hide="video" producer="playlist2"/>
  <track hide="video" producer="playlist3"/>
  <filter id="filter3">
   <property name="window">75</property>
   <property name="max_gain">20dB</property>
   <property name="mlt_service">volume</property>
   <property name="internal_added">237</property>
   <property name="disable">1</property>
  </filter>
  <filter id="filter4">
   <property name="channel">-1</property>
   <property name="mlt_service">panner</property>
   <property name="internal_added">237</property>
   <property name="start">0.5</property>
   <property name="disable">1</property>
  </filter>
  <filter id="filter5">
   <property name="iec_scale">0</property>
   <property name="mlt_service">audiolevel</property>
   <property name="dbpeak">1</property>
   <property name="disable">1</property>
  </filter>
 </tractor>
 <producer id="producer10" in="00:00:00.000" out="00:03:29.800">
  <property name="length">6295</property>
  <property name="eof">pause</property>
  <property name="resource">C:/Users/Victor/Videos/2022-11-19 00-10-11.mkv</property>
  <property name="meta.media.nb_streams">2</property>
  <property name="meta.media.0.stream.type">video</property>
  <property name="meta.media.0.stream.frame_rate">30</property>
  <property name="meta.media.0.stream.sample_aspect_ratio">0</property>
  <property name="meta.media.0.codec.width">1280</property>
  <property name="meta.media.0.codec.height">720</property>
  <property name="meta.media.0.codec.rotate">0</property>
  <property name="meta.media.0.codec.pix_fmt">yuv420p</property>
  <property name="meta.media.0.codec.sample_aspect_ratio">1</property>
  <property name="meta.media.0.codec.colorspace">709</property>
  <property name="meta.media.0.codec.color_trc">1</property>
  <property name="meta.media.0.codec.name">h264</property>
  <property name="meta.media.0.codec.long_name">H.264 / AVC / MPEG-4 AVC / MPEG-4 part 10</property>
  <property name="meta.media.0.codec.bit_rate">0</property>
  <property name="meta.attr.0.stream.DURATION.markup">00:03:29.833000000</property>
  <property name="meta.media.1.stream.type">audio</property>
  <property name="meta.media.1.codec.sample_fmt">fltp</property>
  <property name="meta.media.1.codec.sample_rate">48000</property>
  <property name="meta.media.1.codec.channels">2</property>
  <property name="meta.media.1.codec.name">aac</property>
  <property name="meta.media.1.codec.long_name">AAC (Advanced Audio Coding)</property>
  <property name="meta.media.1.codec.bit_rate">0</property>
  <property name="meta.attr.1.stream.title.markup">simple_aac_recording</property>
  <property name="meta.attr.1.stream.DURATION.markup">00:03:29.706000000</property>
  <property name="meta.attr.ENCODER.markup">Lavf59.16.100</property>
  <property name="seekable">1</property>
  <property name="meta.media.sample_aspect_num">1</property>
  <property name="meta.media.sample_aspect_den">1</property>
  <property name="aspect_ratio">1</property>
  <property name="format">3</property>
  <property name="audio_index">1</property>
  <property name="video_index">0</property>
  <property name="mute_on_pause">0</property>
  <property name="mlt_service">avformat-novalidate</property>
  <property name="kdenlive:clipname"/>
  <property name="kdenlive:clip_type">0</property>
  <property name="kdenlive:folderid">-1</property>
  <property name="kdenlive:id">2</property>
  <property name="kdenlive:file_size">15824530</property>
  <property name="kdenlive:file_hash">b04d836720e2f246a3ba99763666c3ea</property>
  <property name="kdenlive:audio_max1">142</property>
  <property name="kdenlive:zone_in">207</property>
  <property name="kdenlive:zone_out">6189</property>
  <property name="xml">was here</property>
  <property name="meta.media.frame_rate_num">30</property>
  <property name="meta.media.frame_rate_den">1</property>
  <property name="meta.media.colorspace">709</property>
  <property name="meta.media.color_trc">1</property>
  <property name="meta.media.has_b_frames">2</property>
  <property name="meta.media.width">1280</property>
  <property name="meta.media.height">720</property>
  <property name="meta.media.color_range">mpeg</property>
  <property name="meta.media.top_field_first">0</property>
  <property name="meta.media.progressive">1</property>
  <property name="set.test_audio">1</property>
  <property name="set.test_image">0</property>
 </producer>
 <producer id="producer11" in="00:00:00.000" out="00:04:08.933">
  <property name="length">7469</property>
  <property name="eof">pause</property>
  <property name="resource">C:/Users/Victor/Videos/2022-11-19 00-28-08.mkv</property>
  <property name="audio_index">1</property>
  <property name="video_index">0</property>
  <property name="mute_on_pause">0</property>
  <property name="mlt_service">avformat-novalidate</property>
  <property name="seekable">1</property>
  <property name="aspect_ratio">1</property>
  <property name="format">3</property>
  <property name="kdenlive:clipname"/>
  <property name="kdenlive:clip_type">0</property>
  <property name="kdenlive:folderid">-1</property>
  <property name="kdenlive:id">4</property>
  <property name="kdenlive:file_size">17795321</property>
  <property name="kdenlive:file_hash">1414c106d30c29338d858b708fa982e9</property>
  <property name="kdenlive:audio_max1">106</property>
  <property name="xml">was here</property>
  <property name="meta.media.nb_streams">2</property>
  <property name="meta.media.0.stream.type">video</property>
  <property name="meta.media.0.stream.frame_rate">30</property>
  <property name="meta.media.0.stream.sample_aspect_ratio">0</property>
  <property name="meta.media.0.codec.width">1280</property>
  <property name="meta.media.0.codec.height">720</property>
  <property name="meta.media.0.codec.rotate">0</property>
  <property name="meta.media.0.codec.pix_fmt">yuv420p</property>
  <property name="meta.media.0.codec.sample_aspect_ratio">1</property>
  <property name="meta.media.0.codec.colorspace">709</property>
  <property name="meta.media.0.codec.color_trc">1</property>
  <property name="meta.media.0.codec.name">h264</property>
  <property name="meta.media.0.codec.long_name">H.264 / AVC / MPEG-4 AVC / MPEG-4 part 10</property>
  <property name="meta.media.0.codec.bit_rate">0</property>
  <property name="meta.attr.0.stream.DURATION.markup">00:04:08.966000000</property>
  <property name="meta.media.1.stream.type">audio</property>
  <property name="meta.media.1.codec.sample_fmt">fltp</property>
  <property name="meta.media.1.codec.sample_rate">48000</property>
  <property name="meta.media.1.codec.channels">2</property>
  <property name="meta.media.1.codec.name">aac</property>
  <property name="meta.media.1.codec.long_name">AAC (Advanced Audio Coding)</property>
  <property name="meta.media.1.codec.bit_rate">0</property>
  <property name="meta.attr.1.stream.title.markup">simple_aac_recording</property>
  <property name="meta.attr.1.stream.DURATION.markup">00:04:08.874000000</property>
  <property name="meta.attr.ENCODER.markup">Lavf59.16.100</property>
  <property name="meta.media.sample_aspect_num">1</property>
  <property name="meta.media.sample_aspect_den">1</property>
  <property name="meta.media.frame_rate_num">30</property>
  <property name="meta.media.frame_rate_den">1</property>
  <property name="meta.media.colorspace">709</property>
  <property name="meta.media.color_trc">1</property>
  <property name="meta.media.has_b_frames">2</property>
  <property name="meta.media.width">1280</property>
  <property name="meta.media.height">720</property>
  <property name="meta.media.color_range">mpeg</property>
  <property name="meta.media.top_field_first">0</property>
  <property name="meta.media.progressive">1</property>
  <property name="set.test_audio">1</property>
  <property name="set.test_image">0</property>
 </producer>
 <producer id="producer12" in="00:00:00.000" out="00:01:00.567">
  <property name="length">1818</property>
  <property name="eof">pause</property>
  <property name="resource">C:/Users/Victor/Downloads/[Editado] Questão 3.mp4</property>
  <property name="audio_index">1</property>
  <property name="video_index">0</property>
  <property name="mute_on_pause">0</property>
  <property name="mlt_service">avformat-novalidate</property>
  <property name="seekable">1</property>
  <property name="aspect_ratio">1</property>
  <property name="format">3</property>
  <property name="kdenlive:clipname"/>
  <property name="kdenlive:clip_type">0</property>
  <property name="kdenlive:folderid">-1</property>
  <property name="kdenlive:id">6</property>
  <property name="kdenlive:file_size">4851290</property>
  <property name="kdenlive:file_hash">2f536ed1c05d203fe92694e847029411</property>
  <property name="kdenlive:audio_max1">140</property>
  <property name="xml">was here</property>
  <property name="meta.media.nb_streams">2</property>
  <property name="meta.media.0.stream.type">video</property>
  <property name="meta.media.0.stream.frame_rate">60.0165</property>
  <property name="meta.media.0.stream.sample_aspect_ratio">1</property>
  <property name="meta.media.0.codec.width">1920</property>
  <property name="meta.media.0.codec.height">1080</property>
  <property name="meta.media.0.codec.rotate">0</property>
  <property name="meta.media.0.codec.pix_fmt">yuv420p</property>
  <property name="meta.media.0.codec.sample_aspect_ratio">1</property>
  <property name="meta.media.0.codec.colorspace">709</property>
  <property name="meta.media.0.codec.name">h264</property>
  <property name="meta.media.0.codec.long_name">H.264 / AVC / MPEG-4 AVC / MPEG-4 part 10</property>
  <property name="meta.media.0.codec.bit_rate">366953</property>
  <property name="meta.attr.0.stream.handler_name.markup">VideoHandler</property>
  <property name="meta.attr.0.stream.vendor_id.markup">[0][0][0][0]</property>
  <property name="meta.media.1.stream.type">audio</property>
  <property name="meta.media.1.codec.sample_fmt">fltp</property>
  <property name="meta.media.1.codec.sample_rate">48000</property>
  <property name="meta.media.1.codec.channels">2</property>
  <property name="meta.media.1.codec.name">aac</property>
  <property name="meta.media.1.codec.long_name">AAC (Advanced Audio Coding)</property>
  <property name="meta.media.1.codec.bit_rate">260687</property>
  <property name="meta.attr.1.stream.handler_name.markup">SoundHandler</property>
  <property name="meta.attr.1.stream.vendor_id.markup">[0][0][0][0]</property>
  <property name="meta.attr.major_brand.markup">isom</property>
  <property name="meta.attr.minor_version.markup">512</property>
  <property name="meta.attr.compatible_brands.markup">isomiso2avc1mp41</property>
  <property name="meta.attr.encoder.markup">Lavf58.76.100</property>
  <property name="meta.media.sample_aspect_num">1</property>
  <property name="meta.media.sample_aspect_den">1</property>
  <property name="meta.media.frame_rate_num">43632</property>
  <property name="meta.media.frame_rate_den">727</property>
  <property name="meta.media.colorspace">709</property>
  <property name="meta.media.color_trc">2</property>
  <property name="meta.media.has_b_frames">2</property>
  <property name="meta.media.width">1920</property>
  <property name="meta.media.height">1080</property>
  <property name="meta.media.color_range">mpeg</property>
  <property name="meta.media.top_field_first">0</property>
  <property name="meta.media.progressive">1</property>
  <property name="set.test_audio">1</property>
  <property name="set.test_image">0</property>
 </producer>
 <producer id="producer13" in="00:00:00.000" out="00:01:25.533">
  <property name="length">2567</property>
  <property name="eof">pause</property>
  <property name="resource">C:/Users/Victor/Downloads/[Editado] Questão 4.mp4</property>
  <property name="audio_index">1</property>
  <property name="video_index">0</property>
  <property name="mute_on_pause">0</property>
  <property name="mlt_service">avformat-novalidate</property>
  <property name="seekable">1</property>
  <property name="aspect_ratio">1</property>
  <property name="format">3</property>
  <property name="kdenlive:clipname"/>
  <property name="kdenlive:clip_type">0</property>
  <property name="kdenlive:folderid">-1</property>
  <property name="kdenlive:id">7</property>
  <property name="kdenlive:file_size">8145690</property>
  <property name="kdenlive:file_hash">9da6995c38be18c2105a2f19758eb016</property>
  <property name="kdenlive:audio_max1">135</property>
  <property name="xml">was here</property>
  <property name="meta.media.nb_streams">2</property>
  <property name="meta.media.0.stream.type">video</property>
  <property name="meta.media.0.stream.frame_rate">60.0117</property>
  <property name="meta.media.0.stream.sample_aspect_ratio">1</property>
  <property name="meta.media.0.codec.width">1920</property>
  <property name="meta.media.0.codec.height">1080</property>
  <property name="meta.media.0.codec.rotate">0</property>
  <property name="meta.media.0.codec.pix_fmt">yuv420p</property>
  <property name="meta.media.0.codec.sample_aspect_ratio">1</property>
  <property name="meta.media.0.codec.colorspace">709</property>
  <property name="meta.media.0.codec.name">h264</property>
  <property name="meta.media.0.codec.long_name">H.264 / AVC / MPEG-4 AVC / MPEG-4 part 10</property>
  <property name="meta.media.0.codec.bit_rate">487657</property>
  <property name="meta.attr.0.stream.handler_name.markup">VideoHandler</property>
  <property name="meta.attr.0.stream.vendor_id.markup">[0][0][0][0]</property>
  <property name="meta.media.1.stream.type">audio</property>
  <property name="meta.media.1.codec.sample_fmt">fltp</property>
  <property name="meta.media.1.codec.sample_rate">48000</property>
  <property name="meta.media.1.codec.channels">2</property>
  <property name="meta.media.1.codec.name">aac</property>
  <property name="meta.media.1.codec.long_name">AAC (Advanced Audio Coding)</property>
  <property name="meta.media.1.codec.bit_rate">261112</property>
  <property name="meta.attr.1.stream.handler_name.markup">SoundHandler</property>
  <property name="meta.attr.1.stream.vendor_id.markup">[0][0][0][0]</property>
  <property name="meta.attr.major_brand.markup">isom</property>
  <property name="meta.attr.minor_version.markup">512</property>
  <property name="meta.attr.compatible_brands.markup">isomiso2avc1mp41</property>
  <property name="meta.attr.encoder.markup">Lavf58.76.100</property>
  <property name="meta.media.sample_aspect_num">1</property>
  <property name="meta.media.sample_aspect_den">1</property>
  <property name="meta.media.frame_rate_num">102680</property>
  <property name="meta.media.frame_rate_den">1711</property>
  <property name="meta.media.colorspace">709</property>
  <property name="meta.media.color_trc">2</property>
  <property name="meta.media.has_b_frames">2</property>
  <property name="meta.media.width">1920</property>
  <property name="meta.media.height">1080</property>
  <property name="meta.media.color_range">mpeg</property>
  <property name="meta.media.top_field_first">0</property>
  <property name="meta.media.progressive">1</property>
  <property name="set.test_audio">1</property>
  <property name="set.test_image">0</property>
 </producer>
 <playlist id="playlist4">
  <entry producer="producer10" in="00:00:06.900" out="00:00:07.967">
   <property name="kdenlive:id">2</property>
  </entry>
  <entry producer="producer10" in="00:00:08.167" out="00:00:09.067">
   <property name="kdenlive:id">2</property>
  </entry>
  <entry producer="producer10" in="00:00:09.633" out="00:00:17.167">
   <property name="kdenlive:id">2</property>
  </entry>
  <entry producer="producer10" in="00:00:18.133" out="00:00:20.700">
   <property name="kdenlive:id">2</property>
  </entry>
  <entry producer="producer10" in="00:00:21.300" out="00:00:23.667">
   <property name="kdenlive:id">2</property>
  </entry>
  <entry producer="producer10" in="00:00:24.467" out="00:00:30.933">
   <property name="kdenlive:id">2</property>
  </entry>
  <entry producer="producer10" in="00:00:32.067" out="00:00:36.100">
   <property name="kdenlive:id">2</property>
  </entry>
  <entry producer="producer10" in="00:00:36.500" out="00:00:41.467">
   <property name="kdenlive:id">2</property>
  </entry>
  <entry producer="producer10" in="00:00:42.433" out="00:00:45.200">
   <property name="kdenlive:id">2</property>
  </entry>
  <entry producer="producer10" in="00:00:49.667" out="00:00:56.100">
   <property name="kdenlive:id">2</property>
  </entry>
  <entry producer="producer10" in="00:00:56.867" out="00:00:59.800">
   <property name="kdenlive:id">2</property>
  </entry>
  <entry producer="producer10" in="00:01:03.167" out="00:01:06.267">
   <property name="kdenlive:id">2</property>
  </entry>
  <entry producer="producer10" in="00:01:06.667" out="00:01:20.900">
   <property name="kdenlive:id">2</property>
  </entry>
  <entry producer="producer10" in="00:01:20.933" out="00:01:30.700">
   <property name="kdenlive:id">2</property>
  </entry>
  <entry producer="producer10" in="00:01:32.967" out="00:01:37.967">
   <property name="kdenlive:id">2</property>
  </entry>
  <entry producer="producer10" in="00:01:43.167" out="00:01:52.567">
   <property name="kdenlive:id">2</property>
  </entry>
  <entry producer="producer10" in="00:01:55.933" out="00:01:57.367">
   <property name="kdenlive:id">2</property>
  </entry>
  <entry producer="producer10" in="00:02:00.567" out="00:02:13.867">
   <property name="kdenlive:id">2</property>
  </entry>
  <entry producer="producer10" in="00:02:14.100" out="00:02:18.533">
   <property name="kdenlive:id">2</property>
  </entry>
  <entry producer="producer10" in="00:02:18.567" out="00:02:19.267">
   <property name="kdenlive:id">2</property>
  </entry>
  <entry producer="producer10" in="00:02:19.300" out="00:02:21.667">
   <property name="kdenlive:id">2</property>
  </entry>
  <entry producer="producer10" in="00:02:22.633" out="00:02:26.667">
   <property name="kdenlive:id">2</property>
  </entry>
  <entry producer="producer10" in="00:02:28.200" out="00:02:37.633">
   <property name="kdenlive:id">2</property>
  </entry>
  <entry producer="producer10" in="00:02:37.667" out="00:02:38.167">
   <property name="kdenlive:id">2</property>
  </entry>
  <entry producer="producer10" in="00:02:40.933" out="00:02:45.900">
   <property name="kdenlive:id">2</property>
  </entry>
  <entry producer="producer10" in="00:02:46.867" out="00:02:47.767">
   <property name="kdenlive:id">2</property>
  </entry>
  <entry producer="producer10" in="00:02:49.467" out="00:02:51.833">
   <property name="kdenlive:id">2</property>
  </entry>
  <entry producer="producer10" in="00:02:53.167" out="00:03:02.867">
   <property name="kdenlive:id">2</property>
  </entry>
  <entry producer="producer10" in="00:03:06.067" out="00:03:13.733">
   <property name="kdenlive:id">2</property>
  </entry>
  <entry producer="producer10" in="00:03:16.200" out="00:03:26.000">
   <property name="kdenlive:id">2</property>
  </entry>
  <entry producer="producer11" in="00:00:05.000" out="00:00:06.900">
   <property name="kdenlive:id">4</property>
  </entry>
  <entry producer="producer11" in="00:00:07.500" out="00:00:10.133">
   <property name="kdenlive:id">4</property>
  </entry>
  <entry producer="producer11" in="00:00:11.300" out="00:00:14.367">
   <property name="kdenlive:id">4</property>
  </entry>
  <entry producer="producer11" in="00:00:15.400" out="00:00:16.267">
   <property name="kdenlive:id">4</property>
  </entry>
  <entry producer="producer11" in="00:00:16.867" out="00:00:20.100">
   <property name="kdenlive:id">4</property>
  </entry>
  <entry producer="producer11" in="00:00:21.067" out="00:00:27.533">
   <property name="kdenlive:id">4</property>
  </entry>
  <entry producer="producer11" in="00:00:28.300" out="00:00:31.200">
   <property name="kdenlive:id">4</property>
  </entry>
  <entry producer="producer11" in="00:00:33.100" out="00:00:37.900">
   <property name="kdenlive:id">4</property>
  </entry>
  <entry producer="producer11" in="00:00:38.500" out="00:00:39.933">
   <property name="kdenlive:id">4</property>
  </entry>
  <entry producer="producer11" in="00:00:40.733" out="00:00:49.300">
   <property name="kdenlive:id">4</property>
  </entry>
  <entry producer="producer11" in="00:00:48.333" out="00:00:48.333">
   <property name="kdenlive:id">4</property>
  </entry>
  <entry producer="producer11" in="00:00:50.733" out="00:00:52.200">
   <property name="kdenlive:id">4</property>
  </entry>
  <entry producer="producer11" in="00:00:52.800" out="00:00:58.467">
   <property name="kdenlive:id">4</property>
  </entry>
  <entry producer="producer11" in="00:00:58.500" out="00:01:02.733">
   <property name="kdenlive:id">4</property>
  </entry>
  <entry producer="producer11" in="00:01:03.500" out="00:01:06.800">
   <property name="kdenlive:id">4</property>
  </entry>
  <entry producer="producer11" in="00:01:06.833" out="00:01:07.167">
   <property name="kdenlive:id">4</property>
  </entry>
  <entry producer="producer11" in="00:01:07.200" out="00:01:07.900">
   <property name="kdenlive:id">4</property>
  </entry>
  <entry producer="producer11" in="00:01:07.933" out="00:01:07.967">
   <property name="kdenlive:id">4</property>
  </entry>
  <entry producer="producer11" in="00:01:10.967" out="00:01:11.033">
   <property name="kdenlive:id">4</property>
  </entry>
  <entry producer="producer11" in="00:01:11.067" out="00:01:17.533">
   <property name="kdenlive:id">4</property>
  </entry>
  <entry producer="producer11" in="00:01:20.167" out="00:01:24.067">
   <property name="kdenlive:id">4</property>
  </entry>
  <entry producer="producer11" in="00:01:28.000" out="00:01:38.200">
   <property name="kdenlive:id">4</property>
  </entry>
  <entry producer="producer11" in="00:01:40.267" out="00:01:40.700">
   <property name="kdenlive:id">4</property>
  </entry>
  <entry producer="producer11" in="00:01:42.200" out="00:01:44.633">
   <property name="kdenlive:id">4</property>
  </entry>
  <entry producer="producer11" in="00:01:45.233" out="00:01:51.633">
   <property name="kdenlive:id">4</property>
  </entry>
  <entry producer="producer11" in="00:02:05.200" out="00:02:05.833">
   <property name="kdenlive:id">4</property>
  </entry>
  <entry producer="producer11" in="00:02:07.300" out="00:02:11.700">
   <property name="kdenlive:id">4</property>
  </entry>
  <entry producer="producer11" in="00:02:12.567" out="00:02:17.633">
   <property name="kdenlive:id">4</property>
  </entry>
  <entry producer="producer11" in="00:02:19.633" out="00:02:23.867">
   <property name="kdenlive:id">4</property>
  </entry>
  <entry producer="producer11" in="00:02:25.633" out="00:02:27.567">
   <property name="kdenlive:id">4</property>
  </entry>
  <entry producer="producer11" in="00:02:27.967" out="00:02:31.033">
   <property name="kdenlive:id">4</property>
  </entry>
  <entry producer="producer11" in="00:02:31.433" out="00:02:39.167">
   <property name="kdenlive:id">4</property>
  </entry>
  <entry producer="producer11" in="00:02:40.567" out="00:02:44.233">
   <property name="kdenlive:id">4</property>
  </entry>
  <entry producer="producer11" in="00:02:44.933" out="00:02:47.800">
   <property name="kdenlive:id">4</property>
  </entry>
  <entry producer="producer11" in="00:02:47.833" out="00:02:51.067">
   <property name="kdenlive:id">4</property>
  </entry>
  <entry producer="producer11" in="00:02:53.733" out="00:02:59.733">
   <property name="kdenlive:id">4</property>
  </entry>
  <entry producer="producer11" in="00:03:03.400" out="00:03:05.500">
   <property name="kdenlive:id">4</property>
  </entry>
  <entry producer="producer11" in="00:03:06.267" out="00:03:19.067">
   <property name="kdenlive:id">4</property>
  </entry>
  <entry producer="producer11" in="00:03:20.100" out="00:03:23.033">
   <property name="kdenlive:id">4</property>
  </entry>
  <entry producer="producer11" in="00:03:23.567" out="00:03:29.467">
   <property name="kdenlive:id">4</property>
  </entry>
  <entry producer="producer11" in="00:03:30.967" out="00:03:33.233">
   <property name="kdenlive:id">4</property>
  </entry>
  <entry producer="producer11" in="00:03:34.267" out="00:03:36.033">
   <property name="kdenlive:id">4</property>
  </entry>
  <entry producer="producer11" in="00:03:36.667" out="00:03:38.967">
   <property name="kdenlive:id">4</property>
  </entry>
  <entry producer="producer11" in="00:03:41.233" out="00:03:45.033">
   <property name="kdenlive:id">4</property>
  </entry>
  <entry producer="producer11" in="00:03:46.300" out="00:03:54.200">
   <property name="kdenlive:id">4</property>
  </entry>
  <entry producer="producer11" in="00:03:54.967" out="00:03:57.633">
   <property name="kdenlive:id">4</property>
  </entry>
  <entry producer="producer11" in="00:03:59.333" out="00:04:05.300">
   <property name="kdenlive:id">4</property>
  </entry>
  <entry producer="producer12" in="00:00:00.000" out="00:01:00.567">
   <property name="kdenlive:id">6</property>
  </entry>
  <entry producer="producer13" in="00:00:00.000" out="00:01:25.533">
   <property name="kdenlive:id">7</property>
  </entry>
 </playlist>
 <playlist id="playlist5"/>
 <tractor id="tractor2" in="00:00:00.000" out="00:07:58.567">
  <property name="kdenlive:trackheight">67</property>
  <property name="kdenlive:timeline_active">1</property>
  <property name="kdenlive:collapsed">0</property>
  <property name="kdenlive:thumbs_format"/>
  <property name="kdenlive:audio_rec"/>
  <track hide="audio" producer="playlist4"/>
  <track hide="audio" producer="playlist5"/>
 </tractor>
 <playlist id="playlist6"/>
 <playlist id="playlist7"/>
 <tractor id="tractor3" in="00:00:00.000">
  <property name="kdenlive:trackheight">67</property>
  <property name="kdenlive:timeline_active">1</property>
  <property name="kdenlive:collapsed">0</property>
  <property name="kdenlive:thumbs_format"/>
  <property name="kdenlive:audio_rec"/>
  <track hide="audio" producer="playlist6"/>
  <track hide="audio" producer="playlist7"/>
 </tractor>
 <tractor id="tractor4" in="00:00:00.000" out="00:24:38.600">
  <track producer="black_track"/>
  <track producer="tractor0"/>
  <track producer="tractor1"/>
  <track producer="tractor2"/>
  <track producer="tractor3"/>
  <transition id="transition0">
   <property name="a_track">0</property>
   <property name="b_track">1</property>
   <property name="mlt_service">mix</property>
   <property name="kdenlive_id">mix</property>
   <property name="internal_added">237</property>
   <property name="always_active">1</property>
   <property name="accepts_blanks">1</property>
   <property name="sum">1</property>
  </transition>
  <transition id="transition1">
   <property name="a_track">0</property>
   <property name="b_track">2</property>
   <property name="mlt_service">mix</property>
   <property name="kdenlive_id">mix</property>
   <property name="internal_added">237</property>
   <property name="always_active">1</property>
   <property name="accepts_blanks">1</property>
   <property name="sum">1</property>
  </transition>
  <transition id="transition2">
   <property name="a_track">0</property>
   <property name="b_track">3</property>
   <property name="version">0.1</property>
   <property name="mlt_service">frei0r.cairoblend</property>
   <property name="kdenlive_id">frei0r.cairoblend</property>
   <property name="internal_added">237</property>
   <property name="always_active">1</property>
  </transition>
  <transition id="transition3">
   <property name="a_track">0</property>
   <property name="b_track">4</property>
   <property name="version">0.1</property>
   <property name="mlt_service">frei0r.cairoblend</property>
   <property name="kdenlive_id">frei0r.cairoblend</property>
   <property name="internal_added">237</property>
   <property name="always_active">1</property>
  </transition>
  <filter id="filter6">
   <property name="window">75</property>
   <property name="max_gain">20dB</property>
   <property name="mlt_service">volume</property>
   <property name="internal_added">237</property>
   <property name="disable">1</property>
  </filter>
  <filter id="filter7">
   <property name="channel">-1</property>
   <property name="mlt_service">panner</property>
   <property name="internal_added">237</property>
   <property name="start">0.5</property>
   <property name="disable">1</property>
  </filter>
 </tractor>
</mlt>
